<svg width="19" height="19" viewBox="0 0 19 19" fill="none" xmlns="http://www.w3.org/2000/svg">
<path d="M16.9643 2.03571H14.9286V0.678584C14.9286 0.303806 14.6248 0 14.25 0C13.8752 0 13.5714 0.303806 13.5714 0.678584V2.03571H5.42855V0.678584C5.42855 0.303806 5.12475 0 4.75001 0C4.37527 0 4.07143 0.303806 4.07143 0.678584V2.03571H2.03571C0.911419 2.03571 0 2.94713 0 4.07143V16.9643C0 18.0886 0.911419 19 2.03571 19H16.9643C18.0886 19 19 18.0886 19 16.9643V4.07143C19 2.94713 18.0886 2.03571 16.9643 2.03571ZM17.6428 16.9643C17.6428 17.3391 17.339 17.6429 16.9642 17.6429H2.03571C1.66093 17.6429 1.35713 17.3391 1.35713 16.9643V8.14285H17.6428V16.9643ZM17.6428 6.78572H1.35713V4.07143C1.35713 3.69665 1.66093 3.39284 2.03571 3.39284H4.07143V4.74997C4.07143 5.12475 4.37523 5.42855 4.75001 5.42855C5.12479 5.42855 5.42859 5.12475 5.42859 4.74997V3.39284H13.5714V4.74997C13.5714 5.12475 13.8753 5.42855 14.25 5.42855C14.6248 5.42855 14.9286 5.12475 14.9286 4.74997V3.39284H16.9643C17.3391 3.39284 17.6429 3.69665 17.6429 4.07143V6.78572H17.6428Z" fill="#D77E1A"/>
</svg>
