<svg width="19" height="30" viewBox="0 0 19 30" fill="none" xmlns="http://www.w3.org/2000/svg">
<path fill-rule="evenodd" clip-rule="evenodd" d="M13.3872 10.3051L11.3954 10.3138L13.9389 2.81308L15.9061 2.81589L13.3872 10.3051ZM10.0267 29.9958H8.82529C8.07783 29.9252 7.33416 29.721 6.62687 29.3717C4.22032 28.1819 2.84877 26.0181 2.84877 23.2593C2.84877 21.9121 4.84916 20.8647 6.10084 22.1001C6.93054 22.919 6.44278 23.6173 6.96281 24.6466C7.33796 25.3884 8.00001 25.9569 8.82814 26.1445C11.2812 26.7002 13.2715 23.9957 11.8442 21.8794C11.2435 20.989 10.5907 20.9596 9.92956 20.4302C9.27415 19.9054 8.73988 19.3746 8.32835 18.6129C7.59797 17.2605 7.59702 16.4544 7.59702 14.9999H6.46935C5.66052 14.9999 4.74794 14.2044 4.74794 13.1255C3.89546 13.1255 3.31565 13.2344 2.6691 12.7758C2.11491 12.3827 1.96908 11.8339 1.72963 11.2426L0.644341 8.56493C0.277095 7.65769 0 7.27651 0 6.38925C0 5.98902 1.13906 3.34505 1.37346 2.76562L2.11649 0.980189C2.268 0.710142 2.4502 0.501909 2.70389 0.32989C2.90887 0.191276 3.30838 0.00427246 3.62027 0.00427246H15.3718C15.9795 0.00427246 16.6051 0.475997 16.8965 1.01828L17.6186 2.76562C17.8669 3.37877 18.0998 3.95196 18.3481 4.56479C19.2239 6.72861 19.2157 6.42141 18.331 8.60676L17.2457 11.2844C16.5017 13.1201 16.1405 13.1255 14.2441 13.1255C14.2441 13.6871 14.0531 14.1098 13.6975 14.4607C13.0206 15.1288 12.3307 14.9999 11.3954 14.9999C11.3954 16.1191 11.4656 16.9895 12.406 17.5171C12.7831 17.7284 13.0586 17.8539 13.405 18.1127C14.377 18.8389 14.9533 19.5039 15.5309 20.6421C16.3806 22.3171 16.3477 24.5655 15.4908 26.2469C14.3795 28.4282 12.2637 29.7878 10.0267 29.9958ZM9.20803 10.3166L7.24085 10.3138L9.78437 2.81308L11.7516 2.81589L9.20803 10.3166ZM5.05351 10.3166L3.08632 10.3138L5.60517 2.82463L7.59702 2.81589L5.05351 10.3166Z" fill="black"/>
</svg>
