<svg width="21" height="21" viewBox="0 0 21 21" fill="none" xmlns="http://www.w3.org/2000/svg">
<path d="M19.1543 2.46094H8.59249C8.30665 1.05857 7.06367 0 5.57812 0H1.8457C0.827982 0 0 0.827982 0 1.8457V19.1543C0 20.172 0.827982 21 1.8457 21H19.1543C20.172 21 21 20.172 21 19.1543C21 17.835 21 6.33171 21 4.30664C21 3.28892 20.172 2.46094 19.1543 2.46094ZM1.8457 1.23047H5.57812C6.59585 1.23047 7.42383 2.05845 7.42383 3.07617C7.42383 3.41595 7.69929 3.69141 8.03906 3.69141H19.1543C19.4935 3.69141 19.7695 3.9674 19.7695 4.30664V7.38281H18.5391V5.53711C18.5391 5.19734 18.2636 4.92188 17.9238 4.92188H3.07617C2.7364 4.92188 2.46094 5.19734 2.46094 5.53711V7.38281H1.23047V1.8457C1.23047 1.50646 1.50646 1.23047 1.8457 1.23047ZM3.69141 7.38281V6.15234H17.3086V7.38281H3.69141ZM19.7695 19.1543C19.7695 19.4935 19.4935 19.7695 19.1543 19.7695H1.8457C1.50646 19.7695 1.23047 19.4935 1.23047 19.1543V8.61328H19.7695V19.1543Z" fill="#D77E1A"/>
<path d="M10.065 15.8569C10.065 15.857 10.0651 15.857 10.0651 15.857C10.3015 16.0933 10.6928 16.099 10.9349 15.857C10.935 15.857 10.935 15.857 10.935 15.8569L13.396 13.396C13.6362 13.1557 13.6362 12.7662 13.396 12.5259C13.1557 12.2857 12.7662 12.2857 12.5259 12.5259L11.1152 13.9366V10.5C11.1152 10.1602 10.8398 9.88477 10.5 9.88477C10.1602 9.88477 9.88478 10.1602 9.88478 10.5V13.9366L8.47409 12.5259C8.23386 12.2856 7.8443 12.2856 7.60403 12.5259C7.36376 12.7662 7.36376 13.1557 7.60403 13.3959L10.065 15.8569Z" fill="#D77E1A"/>
<path d="M14.1914 16.0371C13.8516 16.0371 13.5762 16.3126 13.5762 16.6523V17.2676H7.42383V16.6523C7.42383 16.3126 7.14837 16.0371 6.80859 16.0371C6.46882 16.0371 6.19336 16.3126 6.19336 16.6523V17.8828C6.19336 18.2226 6.46882 18.498 6.80859 18.498H14.1914C14.5312 18.498 14.8066 18.2226 14.8066 17.8828V16.6523C14.8066 16.3126 14.5312 16.0371 14.1914 16.0371Z" fill="#D77E1A"/>
</svg>
