<svg width="22" height="22" viewBox="0 0 22 22" fill="none" xmlns="http://www.w3.org/2000/svg">
<path fill-rule="evenodd" clip-rule="evenodd" d="M1.71606 15.4446V6.58965C1.71606 5.32062 2.04858 4.41701 2.74504 3.50008C3.1154 3.01241 3.85218 2.42783 4.41751 2.18662C4.98251 1.94542 5.5944 1.75045 6.38382 1.75045H15.582C18.1746 1.75045 20.2495 3.84642 20.2495 6.45243V15.6506C20.2495 16.6856 19.8009 17.9295 19.1431 18.6283C18.777 19.0172 18.6932 19.1347 18.2044 19.4743C17.4547 19.995 16.4685 20.2839 15.479 20.2839H6.48682C4.88033 20.2839 3.39149 19.5228 2.53296 18.2316C1.97388 17.3908 1.71606 16.5609 1.71606 15.4446ZM16.131 4.94236C16.131 6.25746 17.8471 6.03353 17.8471 5.1138V4.90797C17.8471 4.53909 17.4609 4.15294 17.092 4.15294C16.7962 4.15294 16.6318 4.13846 16.3612 4.41734C16.2508 4.53103 16.131 4.73423 16.131 4.94236ZM6.79564 11.1202C6.79564 9.29422 7.70188 7.97468 9.16375 7.24185C9.89229 6.87659 10.35 6.83003 11.1888 6.83003C12.3989 6.83003 13.7348 7.59 14.4088 8.58657C15.0066 9.47043 15.17 10.0957 15.17 11.223C15.17 12.0927 14.7267 13.0947 14.1991 13.7186C13.9788 13.9791 13.6829 14.2348 13.4103 14.4399C12.0292 15.4793 9.94297 15.435 8.56041 14.4348C8.32414 14.2639 8.2065 14.1606 8.00544 13.9602C7.39717 13.3539 6.79564 12.3214 6.79564 11.1202ZM5.04519 10.9828C5.04519 11.9011 5.27537 12.7836 5.56051 13.4194C6.50804 15.5326 8.61059 16.9548 10.9828 16.9548C12.281 16.9548 13.4006 16.5359 14.3536 15.898C14.6721 15.6848 14.7598 15.5668 14.9641 15.4103C15.0479 15.3462 15.0831 15.3092 15.1616 15.2302C17.4963 12.8759 17.5167 9.15947 15.1787 6.82131C14.2262 5.869 12.792 5.07958 10.9486 5.07958C9.37879 5.07958 7.84601 5.76239 6.78692 6.82131C6.28198 7.32626 5.89237 7.92482 5.58255 8.56847C5.29709 9.16111 5.04519 10.1212 5.04519 10.9828ZM0 6.10922V15.9252C0 17.4272 0.832858 19.1064 1.86184 20.1382C2.14714 20.4241 2.36761 20.5903 2.68186 20.8282C3.00451 21.0725 3.11277 21.0977 3.38326 21.2594C3.4782 21.3162 3.51966 21.3463 3.62808 21.3922C4.3721 21.7076 5.21104 22 6.07483 22H15.8566C17.1277 22 18.517 21.4291 19.4262 20.7305C19.8079 20.4373 20.1569 20.1132 20.4662 19.7454C21.5823 18.418 22 17.0167 22 15.1701V6.86425C22 5.67979 21.8488 4.7673 21.4862 3.94596C20.9054 2.6302 19.9058 1.43258 18.6141 0.777411C18.404 0.670795 18.2511 0.602185 18.0305 0.502973C17.6717 0.341567 17.1185 0.184111 16.7052 0.11221C16.2121 0.0264896 15.631 0 15.0671 0H6.86425C4.98662 0 3.39165 0.464801 2.0675 1.6899C1.43801 2.27218 0.899823 2.99398 0.559078 3.78521C0.430085 4.08449 0.312445 4.34248 0.226066 4.68783C0.118463 5.11907 0 5.59078 0 6.10922H0Z" fill="url(#paint0_linear_46_197)"/>
<defs>
<linearGradient id="paint0_linear_46_197" x1="1.98935" y1="17.3094" x2="20.0106" y2="4.69063" gradientUnits="userSpaceOnUse">
<stop stop-color="#EEBD2E"/>
<stop offset="0.490196" stop-color="#D44B37"/>
<stop offset="1" stop-color="#892CA6"/>
</linearGradient>
</defs>
</svg>
