<svg width="23" height="23" viewBox="0 0 23 23" fill="none" xmlns="http://www.w3.org/2000/svg">
<path d="M21.1545 15.0969C19.7463 15.0969 18.3637 14.8766 17.0535 14.4436C16.4003 14.2209 15.6565 14.3937 15.2304 14.828L12.6443 16.7802C9.64509 15.1793 7.79766 13.3325 6.21857 10.3558L8.11337 7.83707C8.60565 7.34545 8.78223 6.62729 8.57067 5.95347C8.13583 4.63636 7.91494 3.25438 7.91494 1.84563C7.915 0.82794 7.08706 0 6.06942 0H1.84551C0.82794 0 0 0.82794 0 1.84551C0 13.5103 9.48978 23 21.1545 23C22.1721 23 23.0001 22.1721 23.0001 21.1544V16.9424C23 15.9248 22.1721 15.0969 21.1545 15.0969ZM21.7222 21.1545C21.7222 21.4677 21.4677 21.7222 21.1545 21.7222C10.1941 21.7222 1.27782 12.8058 1.27782 1.84557C1.27782 1.53237 1.53238 1.27782 1.84557 1.27782H6.06948C6.38268 1.27782 6.63724 1.53237 6.63724 1.84557C6.63724 3.391 6.87994 4.90774 7.35473 6.34465C7.42085 6.5568 7.36719 6.77637 7.15258 6.99979L4.95638 9.90839C4.80916 10.1036 4.78604 10.3651 4.89648 10.5828C6.68899 14.1061 8.8671 16.2842 12.4153 18.1023C12.6311 18.2152 12.8957 18.1915 13.0916 18.0436L16.0671 15.7894C16.2174 15.6391 16.4427 15.5854 16.6461 15.6547C18.0929 16.1326 19.6097 16.3747 21.1545 16.3747C21.4677 16.3747 21.7222 16.6292 21.7222 16.9424V21.1545Z" fill="#D77E1A"/>
</svg>
