<svg width="27" height="15" viewBox="0 0 27 15" fill="none" xmlns="http://www.w3.org/2000/svg">
<path fill-rule="evenodd" clip-rule="evenodd" d="M8.93217 1.06083C9.29239 1.23161 10.1328 1.14275 10.4347 2.18399C10.7066 3.12195 10.6955 5.36507 10.4853 6.40916C9.90405 9.2964 7.45056 4.72985 6.84484 3.72672C6.53127 3.20725 5.98571 2.02247 5.74328 1.44442C5.32505 0.446985 4.32237 0.659436 3.12732 0.659436C2.67776 0.659436 2.37427 0.700573 1.95011 0.699683C1.28639 0.69808 0.00164795 0.571108 0.00164795 1.18122C0.00164795 1.64797 0.269115 2.11436 0.475164 2.51914L1.58538 4.71258C1.77936 5.08121 1.95731 5.45073 2.17651 5.81383L2.7797 6.86291C4.3683 9.45667 6.27695 12.499 9.13515 13.9043C11.3015 14.9694 12.3212 14.9478 14.6965 14.9478C15.0663 14.9478 15.5308 14.7487 15.6592 14.495C15.8159 14.1855 15.7999 13.6733 15.8341 13.263C15.9178 12.2636 16.4088 10.9445 17.5958 11.76C18.1581 12.1464 18.8414 13.0464 19.3546 13.5531C19.6327 13.8275 19.9691 14.1869 20.2814 14.4027C20.4414 14.5133 20.7061 14.6729 20.8715 14.7425C21.8529 15.1556 22.98 14.9475 24.1954 14.9478C24.87 14.948 26.0457 15.0581 26.6144 14.6905C27.5158 14.1076 26.6144 13.066 26.1034 12.4192C25.8114 12.0499 24.6852 10.8703 24.2864 10.523C21.676 8.25035 22.1984 8.6188 24.9029 5.05147C25.4703 4.30299 26.9964 2.34177 26.9964 1.3016C26.9964 0.756313 26.4119 0.709655 25.9744 0.66371C25.7495 0.640204 25.687 0.698258 25.4555 0.701108C24.7365 0.710012 21.4622 0.623286 21.0527 0.762902C20.7881 0.853189 20.6377 1.12227 20.5302 1.37016C19.9217 2.77095 19.5069 3.73562 18.6345 5.03473C18.2813 5.5606 17.15 7.32201 16.442 7.32201C15.9348 7.32201 15.7519 6.32315 15.7519 5.83698C15.7519 4.36247 15.8332 3.01724 15.8332 1.58261C15.8332 1.2772 15.7664 0.957011 15.6648 0.745628C15.2212 -0.177904 12.8053 0.0172737 11.6926 0.0172737C10.8889 0.0172737 9.59318 0.0995475 9.09283 0.73797C9.01502 0.837518 8.94658 0.890765 8.93217 1.06083Z" fill="#DEDEDE"/>
</svg>
