<svg width="652" height="111" viewBox="0 0 652 111" fill="none" xmlns="http://www.w3.org/2000/svg">
<path fill-rule="evenodd" clip-rule="evenodd" d="M416.311 37.6178H423.547V83.2955H410.88C411.985 75.6188 415.538 44.4909 416.311 37.6178ZM399.016 83.2687C396.852 83.3146 396.709 83.2802 394.583 83.3223C394.59 87.4247 394.598 92.4073 394.598 110.164H406.357V100.31H428.974V110.164H439.833V83.2955H436.214V21.4951H405.452C402.65 45.1376 402.457 52.6995 399.016 83.2687Z" fill="#3F434D" fill-opacity="0.5"/>
<path fill-rule="evenodd" clip-rule="evenodd" d="M278.647 37.6178H285.883V83.2955H273.22C275.4 65.1407 276.034 54.8158 278.647 37.6178ZM262.362 83.2955H257.839V110.164H268.694V100.31H291.311V110.164H303.073V83.2955H298.551V21.4951H267.789C265.095 53.1894 264.836 60.1811 262.362 83.2955Z" fill="#3F434D" fill-opacity="0.5"/>
<path fill-rule="evenodd" clip-rule="evenodd" d="M362.785 37.6177H377.261V60.0088H362.785V37.6177ZM351.927 73.4411H359.167C358.282 77.1991 355.301 83.4484 353.867 87.0035C352.066 91.4695 350.303 96.1995 348.309 100.31H361.88C363.593 93.0385 369.213 82.5069 370.926 75.2321H377.261V100.31H389.924V21.4951H351.927V73.4411Z" fill="#3F434D" fill-opacity="0.5"/>
<path fill-rule="evenodd" clip-rule="evenodd" d="M229.79 37.6177H243.362V83.2953H229.79V37.6177ZM218.031 100.31H256.03C256.03 87.6197 255.125 78.152 255.125 65.3817V21.4951H218.031V100.31Z" fill="#3F434D" fill-opacity="0.5"/>
<path fill-rule="evenodd" clip-rule="evenodd" d="M612.63 100.31H623.485L638.966 55.627C639.747 53.8398 639.476 54.2072 640.675 52.841V100.31H651.533V21.4951H639.77C639.31 26.9714 634.181 38.4903 632.194 44.4449L624.47 65.4582C624.381 65.6304 624.231 65.8869 624.15 66.0399L623.485 21.4951H612.63V100.31Z" fill="#3F434D" fill-opacity="0.5"/>
<path fill-rule="evenodd" clip-rule="evenodd" d="M126.658 100.31H157.416V110.164H169.179V83.2955H163.748V21.4951H152.894V84.191H138.417V21.4951H126.658V100.31Z" fill="#3F434D" fill-opacity="0.5"/>
<path fill-rule="evenodd" clip-rule="evenodd" d="M578.25 37.6177H593.631V83.2953H578.25V37.6177ZM567.396 100.31H604.49V21.4951H567.396V100.31Z" fill="#3F434D" fill-opacity="0.5"/>
<path fill-rule="evenodd" clip-rule="evenodd" d="M39.8033 100.31H51.5662V37.6177H66.0428V100.31H77.8018V21.4951H39.8033V100.31Z" fill="#3F434D" fill-opacity="0.5"/>
<path fill-rule="evenodd" clip-rule="evenodd" d="M534.824 37.6177H549.301V60.0088H534.824V37.6177ZM523.97 100.31H534.824V76.1276H561.064V21.4951H523.97V100.31Z" fill="#3F434D" fill-opacity="0.5"/>
<path fill-rule="evenodd" clip-rule="evenodd" d="M85.0422 100.31H121.228V83.2953H95.8967V68.9636H109.469V51.9455H96.8012V38.5132H121.228V21.4951H85.0422V100.31Z" fill="#3F434D" fill-opacity="0.5"/>
<path fill-rule="evenodd" clip-rule="evenodd" d="M173.702 100.31H184.556V37.6177H199.937V100.31H210.796V21.4951H173.702V100.31Z" fill="#3F434D" fill-opacity="0.5"/>
<path fill-rule="evenodd" clip-rule="evenodd" d="M318.455 37.6177H332.927V60.9042H318.455V37.6177ZM307.596 100.31H318.455V76.1276H344.69V21.4951H307.596V100.31Z" fill="#3F434D" fill-opacity="0.5"/>
<path fill-rule="evenodd" clip-rule="evenodd" d="M0 100.31H35.2806V76.1276H23.5217V84.1908H11.7589V37.6177H23.5217V45.6771H35.2806V21.4951H0V100.31Z" fill="#3F434D" fill-opacity="0.5"/>
<path fill-rule="evenodd" clip-rule="evenodd" d="M444.355 100.31H479.64V76.1276H468.781V84.1908H455.209V37.6177H468.781V45.6771H478.735V21.4951H444.355V100.31Z" fill="#3F434D" fill-opacity="0.5"/>
<path fill-rule="evenodd" clip-rule="evenodd" d="M483.258 37.6177H495.017V100.31H505.876V38.5132H519.448V21.4951H483.258V37.6177Z" fill="#3F434D" fill-opacity="0.5"/>
<path fill-rule="evenodd" clip-rule="evenodd" d="M622.58 14.3276H641.579V0H622.58V14.3276Z" fill="#3F434D" fill-opacity="0.5"/>
</svg>
