<svg width="200" height="97" viewBox="0 0 200 97" fill="none" xmlns="http://www.w3.org/2000/svg">
<g clip-path="url(#clip0_3_71)">
<path fill-rule="evenodd" clip-rule="evenodd" d="M24.4252 26.8367V25.1728H32.234V26.8367H24.4252Z" fill="#D77E1A"/>
<path fill-rule="evenodd" clip-rule="evenodd" d="M24.4166 25.4286H26.0815V94.4344H24.4166V25.4286Z" fill="#D77E1A"/>
<path fill-rule="evenodd" clip-rule="evenodd" d="M30.5701 25.4286H32.234V94.4344H30.5701V25.4286Z" fill="#D77E1A"/>
<path fill-rule="evenodd" clip-rule="evenodd" d="M25.3945 93.2691L26.0891 93.5808L28.3225 87.9438L30.5549 93.5808L31.2495 93.2691L28.7318 86.91L31.2495 80.5518L30.5549 80.2401L28.3225 85.8771L26.0891 80.2401L25.3945 80.5518L27.9131 86.91L25.3945 93.2691Z" fill="#D77E1A"/>
<path fill-rule="evenodd" clip-rule="evenodd" d="M25.3945 79.9653L26.0891 80.277L28.3225 74.64L30.5549 80.277L31.2495 79.9653L28.7318 73.6062L31.2495 67.2481L30.5549 66.9364L28.3225 72.5734L26.0891 66.9364L25.3945 67.2481L27.9131 73.6062L25.3945 79.9653Z" fill="#D77E1A"/>
<path fill-rule="evenodd" clip-rule="evenodd" d="M25.3945 66.5981L26.0891 66.9098L28.3225 61.2728L30.5549 66.9098L31.2495 66.5981L28.7318 60.2399L31.2495 53.8809L30.5549 53.5692L28.3225 59.2062L26.0891 53.5692L25.3945 53.8809L27.9131 60.2399L25.3945 66.5981Z" fill="#D77E1A"/>
<path fill-rule="evenodd" clip-rule="evenodd" d="M25.3945 53.2944L26.0891 53.6061L28.3225 47.9691L30.5549 53.6061L31.2495 53.2944L28.7318 46.9353L31.2495 40.5772L30.5549 40.2655L28.3225 45.9025L26.0891 40.2655L25.3945 40.5772L27.9131 46.9353L25.3945 53.2944Z" fill="#D77E1A"/>
<path fill-rule="evenodd" clip-rule="evenodd" d="M25.3945 39.8495L26.0891 40.1612L28.3225 34.5242L30.5549 40.1612L31.2495 39.8495L28.7318 33.4914L31.2495 27.1323L30.5549 26.8206L28.3225 32.4576L26.0891 26.8206L25.3945 27.1323L27.9131 33.4914L25.3945 39.8495Z" fill="#D77E1A"/>
<path fill-rule="evenodd" clip-rule="evenodd" d="M24.4252 24.5247V22.8598H32.234V24.5247H24.4252Z" fill="#D77E1A"/>
<path fill-rule="evenodd" clip-rule="evenodd" d="M32.2435 19.2032V17.5393H24.4337V19.2032H32.2435Z" fill="#D77E1A"/>
<path fill-rule="evenodd" clip-rule="evenodd" d="M26.0957 17.5393H24.4318V24.501H26.0957V17.5393Z" fill="#D77E1A"/>
<path fill-rule="evenodd" clip-rule="evenodd" d="M32.2435 17.5393H30.5786V24.501H32.2435V17.5393Z" fill="#D77E1A"/>
<path fill-rule="evenodd" clip-rule="evenodd" d="M0.0559082 10.0375H11.6123V19.4088H0.0559082V10.0375Z" fill="#D77E1A"/>
<path fill-rule="evenodd" clip-rule="evenodd" d="M11.6075 11.7052V10.0413H86.907V11.7052H11.6075Z" fill="#D77E1A"/>
<path fill-rule="evenodd" clip-rule="evenodd" d="M11.6075 16.8106V15.1467H94.3331L96.0596 16.8106H11.6075Z" fill="#D77E1A"/>
<path fill-rule="evenodd" clip-rule="evenodd" d="M63.6285 15.6953L63.873 15.1495L59.4479 13.3966L63.873 11.6445L63.6285 11.0987L58.6377 13.0753L53.646 11.0987L53.4015 11.6445L57.8266 13.3966L53.4015 15.1495L53.646 15.6953L58.6377 13.7178L63.6285 15.6953Z" fill="#D77E1A"/>
<path fill-rule="evenodd" clip-rule="evenodd" d="M53.1855 15.6953L53.4309 15.1495L49.0058 13.3966L53.4309 11.6445L53.1855 11.0987L48.1947 13.0753L43.2039 11.0987L42.9585 11.6445L47.3836 13.3966L42.9585 15.1495L43.2039 15.6953L48.1947 13.7178L53.1855 15.6953Z" fill="#D77E1A"/>
<path fill-rule="evenodd" clip-rule="evenodd" d="M42.6932 15.6953L42.9386 15.1495L38.5135 13.3966L42.9386 11.6445L42.6932 11.0987L37.7024 13.0753L32.7107 11.0987L32.4662 11.6445L36.8913 13.3966L32.4662 15.1495L32.7107 15.6953L37.7024 13.7178L42.6932 15.6953Z" fill="#D77E1A"/>
<path fill-rule="evenodd" clip-rule="evenodd" d="M32.2511 15.6953L32.4956 15.1495L28.0705 13.3966L32.4956 11.6445L32.2511 11.0987L27.2594 13.0753L22.2686 11.0987L22.0232 11.6445L26.4483 13.3966L22.0232 15.1495L22.2686 15.6953L27.2594 13.7178L32.2511 15.6953Z" fill="#D77E1A"/>
<path fill-rule="evenodd" clip-rule="evenodd" d="M21.6972 15.6953L21.9417 15.1495L17.5166 13.3966L21.9417 11.6445L21.6972 11.0987L16.7064 13.0753L11.7147 11.0987L11.4702 11.6445L15.8953 13.3966L11.4702 15.1495L11.7147 15.6953L16.7064 13.7178L21.6972 15.6953Z" fill="#D77E1A"/>
<path fill-rule="evenodd" clip-rule="evenodd" d="M24.6715 10.3483L28.0581 0.981674L28.3054 1.04611L26.3155 10.3824L24.6715 10.3483Z" fill="#D77E1A"/>
<path fill-rule="evenodd" clip-rule="evenodd" d="M32.4283 10.3483L29.0417 0.981674L28.7935 1.04611L30.7843 10.3824L32.4283 10.3483Z" fill="#D77E1A"/>
<path d="M28.548 1.65633C29.0054 1.65633 29.3762 1.28555 29.3762 0.828168C29.3762 0.370786 29.0054 3.8147e-06 28.548 3.8147e-06C28.0906 3.8147e-06 27.7198 0.370786 27.7198 0.828168C27.7198 1.28555 28.0906 1.65633 28.548 1.65633Z" fill="#D77E1A"/>
<path fill-rule="evenodd" clip-rule="evenodd" d="M72.0409 10.4629L28.7015 0.699303L28.494 0.918188L69.329 10.9613L72.0409 10.4629Z" fill="#D77E1A"/>
<path fill-rule="evenodd" clip-rule="evenodd" d="M13.9528 10.5169L28.0951 0.733414L28.2779 1.02242L15.3352 10.7661L13.9528 10.5169Z" fill="#D77E1A"/>
<path fill-rule="evenodd" clip-rule="evenodd" d="M84.6689 15.6953L84.9134 15.1495L80.4883 13.3966L84.9134 11.6445L84.6689 11.0987L79.6772 13.0753L74.6864 11.0987L74.4419 11.6445L78.867 13.3966L74.4419 15.1495L74.6864 15.6953L79.6772 13.7178L84.6689 15.6953Z" fill="#D77E1A"/>
<path fill-rule="evenodd" clip-rule="evenodd" d="M74.1151 15.6953L74.3605 15.1495L69.9354 13.3966L74.3605 11.6445L74.1151 11.0987L69.1243 13.0753L64.1325 11.0987L63.8881 11.6445L68.3132 13.3966L63.8881 15.1495L64.1325 15.6953L69.1243 13.7178L74.1151 15.6953Z" fill="#D77E1A"/>
<path fill-rule="evenodd" clip-rule="evenodd" d="M86.1244 11.5128L86.9004 10.0413L96.0482 15.0311L96.0595 16.8106L86.1244 11.5128Z" fill="#D77E1A"/>
<path fill-rule="evenodd" clip-rule="evenodd" d="M37.8692 94.4554H34.4163V67.7049V65.6904V63.6758H35.9485V65.0252H40.4001V59.7672H35.9485H34.4418H34.4163V55.7382H35.9485V57.0875H40.4001V52.1242H35.9485H34.4418H34.4163V48.0952H35.9485V49.4435H40.4001V44.3485H34.4418V41.2443H56.6137V28.5328H81.002V44.3485H72.1489V49.4435H80.9679V52.1242H72.1489V57.0875H80.9679V59.7672H72.1489V65.0252H80.9679V67.7049H72.1489V72.7667H56.6412V67.7049H47.1619V72.5469H40.4001H37.8692V94.4554V94.4554ZM56.6412 44.3485H56.6137H47.1619V49.4435H56.6412V44.3485ZM56.6412 52.1242H47.1619V57.0875H56.6412V52.1242ZM56.6412 59.7672H47.1619V65.0252H56.6412V59.7672Z" fill="#D77E1A"/>
<path fill-rule="evenodd" clip-rule="evenodd" d="M142.284 78.8425H144.058V90.1525H140.953C141.224 88.2517 142.095 80.5443 142.284 78.8425ZM138.045 90.1459C137.514 90.1573 137.479 90.1487 136.958 90.1592C136.96 91.1749 136.962 92.4087 136.962 96.8053H139.844V94.3654H145.388V96.8053H148.05V90.1525H147.163V74.8504H139.623C138.936 80.7044 138.888 82.5768 138.045 90.1459V90.1459Z" fill="#FEFEFE"/>
<path fill-rule="evenodd" clip-rule="evenodd" d="M108.539 78.8425H110.313V90.1525H107.209C107.743 85.6573 107.898 83.1008 108.539 78.8425ZM104.547 90.1525H103.438V96.8053H106.099V94.3654H111.643V96.8053H114.526V90.1525H113.418V74.8504H105.877C105.217 82.6981 105.153 84.4293 104.547 90.1525Z" fill="#FEFEFE"/>
<path fill-rule="evenodd" clip-rule="evenodd" d="M129.163 78.8424H132.712V84.3866H129.163V78.8424ZM126.502 87.7125H128.277C128.06 88.643 127.329 90.1904 126.977 91.0706C126.536 92.1764 126.104 93.3476 125.615 94.3653H128.942C129.361 92.5649 130.739 89.9573 131.159 88.156H132.712V94.3653H135.816V74.8504H126.502V87.7125V87.7125Z" fill="#FEFEFE"/>
<path fill-rule="evenodd" clip-rule="evenodd" d="M96.5626 78.8424H99.8895V90.1525H96.5626V78.8424V78.8424ZM93.6802 94.3653H102.995C102.995 91.2232 102.773 88.879 102.773 85.717V74.8504H93.6802V94.3653V94.3653Z" fill="#FEFEFE"/>
<path fill-rule="evenodd" clip-rule="evenodd" d="M190.408 94.3653H193.069L196.864 83.3016C197.055 82.8591 196.989 82.9501 197.282 82.6118V94.3653H199.944V74.8504H197.061C196.948 76.2063 195.69 79.0585 195.203 80.5329L193.31 85.7359C193.288 85.7786 193.251 85.842 193.232 85.8799L193.069 74.8504H190.408V94.3653V94.3653Z" fill="#FEFEFE"/>
<path fill-rule="evenodd" clip-rule="evenodd" d="M71.2819 94.3654H78.8216V96.8053H81.705V90.1525H80.3737V74.8504H77.7129V90.3743H74.1643V74.8504H71.2819V94.3654Z" fill="#FEFEFE"/>
<path fill-rule="evenodd" clip-rule="evenodd" d="M181.98 78.8424H185.751V90.1525H181.98V78.8424ZM179.32 94.3653H188.412V74.8504H179.32V94.3653Z" fill="#FEFEFE"/>
<path fill-rule="evenodd" clip-rule="evenodd" d="M49.9912 94.3653H52.8746V78.8424H56.4233V94.3653H59.3057V74.8504H49.9912V94.3653Z" fill="#FEFEFE"/>
<path fill-rule="evenodd" clip-rule="evenodd" d="M171.335 78.8424H174.884V84.3866H171.335V78.8424ZM168.675 94.3653H171.335V88.3777H177.767V74.8504H168.675V94.3653V94.3653Z" fill="#FEFEFE"/>
<path fill-rule="evenodd" clip-rule="evenodd" d="M61.0806 94.3653H69.9507V90.1525H63.7413V86.6039H67.0682V82.3901H63.963V79.0642H69.9507V74.8504H61.0806V94.3653Z" fill="#FEFEFE"/>
<path fill-rule="evenodd" clip-rule="evenodd" d="M82.8137 94.3653H85.4745V78.8424H89.2448V94.3653H91.9065V74.8504H82.8137V94.3653Z" fill="#FEFEFE"/>
<path fill-rule="evenodd" clip-rule="evenodd" d="M118.297 78.8424H121.845V84.6083H118.297V78.8424ZM115.635 94.3653H118.297V88.3777H124.728V74.8504H115.635V94.3653V94.3653Z" fill="#FEFEFE"/>
<path fill-rule="evenodd" clip-rule="evenodd" d="M40.2343 94.3653H48.8826V88.3777H46.0001V90.3742H43.1167V78.8424H46.0001V80.838H48.8826V74.8504H40.2343V94.3653Z" fill="#FEFEFE"/>
<path fill-rule="evenodd" clip-rule="evenodd" d="M149.159 94.3653H157.808V88.3777H155.146V90.3742H151.819V78.8424H155.146V80.838H157.586V74.8504H149.159V94.3653Z" fill="#FEFEFE"/>
<path fill-rule="evenodd" clip-rule="evenodd" d="M158.695 78.8424H161.577V94.3653H164.239V79.0642H167.566V74.8504H158.695V78.8424Z" fill="#FEFEFE"/>
<path fill-rule="evenodd" clip-rule="evenodd" d="M192.847 73.0756H197.504V69.528H192.847V73.0756Z" fill="#FEFEFE"/>
</g>
<defs>
<clipPath id="clip0_3_71">
<rect width="200" height="96.8053" fill="white"/>
</clipPath>
</defs>
</svg>
